<?xml version="1.0" encoding="UTF-8"?>
<svg xmlns="http://www.w3.org/2000/svg" viewBox="0 0 794 1123" width="794" height="1123">
<rect width="794" height="1123" fill="#fff"/>
<rect x="40" y="40" width="714" height="1043" rx="24" fill="none" stroke="#111" stroke-width="2.5" stroke-linecap="round" stroke-linejoin="round"/><rect x="55" y="55" width="684" height="1013" rx="18" fill="none" stroke="#111" stroke-width="2.5" stroke-linecap="round" stroke-linejoin="round"/><path d="M 397 417.5 Q 451 513.5 445 621.5 L 349 621.5 Q 343 513.5 397 417.5 Z" fill="none" stroke="#111" stroke-width="3" stroke-linecap="round" stroke-linejoin="round"/><circle cx="397" cy="519.5" r="21.599999999999998" fill="none" stroke="#111" stroke-width="3" stroke-linecap="round" stroke-linejoin="round"/><polygon points="349,585.5 295,627.5 349,621.5" fill="none" stroke="#111" stroke-width="3" stroke-linecap="round" stroke-linejoin="round"/><polygon points="445,585.5 499,627.5 445,621.5" fill="none" stroke="#111" stroke-width="3" stroke-linecap="round" stroke-linejoin="round"/><path d="M 367 621.5 L 397 675.5 L 427 621.5" fill="none" stroke="#111" stroke-width="3" stroke-linecap="round" stroke-linejoin="round"/><polygon points="150,175 155.87785252292474,191.9098300562505 173.77641290737884,192.27457514062633 159.51056516295154,203.0901699437495 164.69463130731182,220.22542485937367 150,210 135.30536869268818,220.22542485937367 140.48943483704846,203.0901699437495 126.22358709262116,192.27457514062633 144.12214747707526,191.90983005625054" fill="none" stroke="#111" stroke-width="3" stroke-linecap="round" stroke-linejoin="round"/><polygon points="600,250 607.0534230275097,270.2917960675006 628.5316954888546,270.72949016875157 611.4126781955418,283.7082039324994 617.6335575687742,304.27050983124843 600,292 582.3664424312258,304.27050983124843 588.5873218044582,283.7082039324994 571.4683045111453,270.72949016875157 592.9465769724903,270.2917960675006" fill="none" stroke="#111" stroke-width="3" stroke-linecap="round" stroke-linejoin="round"/><polygon points="500,130 504.70228201833976,143.52786404500043 519.0211303259031,143.81966011250105 507.60845213036123,152.47213595499957 511.7557050458495,166.18033988749895 500,158 488.2442949541505,166.18033988749895 492.39154786963877,152.47213595499957 480.9788696740969,143.81966011250105 495.29771798166024,143.52786404500043" fill="none" stroke="#111" stroke-width="3" stroke-linecap="round" stroke-linejoin="round"/>
<g id="sts-complete-footer" font-family="Arial, Helvetica, sans-serif" fill="#555" text-anchor="middle">
  <text x="397" y="1008" font-size="14">Completar e colorir</text>
  <text x="397" y="1028" font-size="13">Complete and color</text>
  <text x="397" y="1048" font-size="13">Completar y colorear</text>
  <text x="397" y="1068" font-size="13">完成并涂色</text>
</g>
</svg>
