<?xml version="1.0" encoding="UTF-8"?>
<svg xmlns="http://www.w3.org/2000/svg" viewBox="0 0 794 1123" width="794" height="1123">
<rect width="794" height="1123" fill="#fff"/>
<rect x="34" y="34" width="726" height="1055" rx="26" fill="none" stroke="#111" stroke-width="1.9" stroke-linecap="round" stroke-linejoin="round"/><rect x="50" y="50" width="694" height="1023" rx="18" fill="none" stroke="#111" stroke-width="1.9" stroke-linecap="round" stroke-linejoin="round"/><ellipse cx="78" cy="67" rx="6.800000000000001" ry="4" fill="none" stroke="#111" stroke-width="2.6" stroke-linecap="round" stroke-linejoin="round"/><ellipse cx="87.52627944162883" cy="72.5" rx="6.800000000000001" ry="4" fill="none" stroke="#111" stroke-width="2.6" stroke-linecap="round" stroke-linejoin="round"/><ellipse cx="87.52627944162883" cy="83.5" rx="6.800000000000001" ry="4" fill="none" stroke="#111" stroke-width="2.6" stroke-linecap="round" stroke-linejoin="round"/><ellipse cx="78" cy="89" rx="6.800000000000001" ry="4" fill="none" stroke="#111" stroke-width="2.6" stroke-linecap="round" stroke-linejoin="round"/><ellipse cx="68.47372055837117" cy="83.5" rx="6.800000000000001" ry="4" fill="none" stroke="#111" stroke-width="2.6" stroke-linecap="round" stroke-linejoin="round"/><ellipse cx="68.47372055837117" cy="72.5" rx="6.800000000000001" ry="4" fill="none" stroke="#111" stroke-width="2.6" stroke-linecap="round" stroke-linejoin="round"/><circle cx="78" cy="78" r="6" fill="none" stroke="#111" stroke-width="2.6" stroke-linecap="round" stroke-linejoin="round"/><ellipse cx="716" cy="67" rx="6.800000000000001" ry="4" fill="none" stroke="#111" stroke-width="2.6" stroke-linecap="round" stroke-linejoin="round"/><ellipse cx="725.5262794416288" cy="72.5" rx="6.800000000000001" ry="4" fill="none" stroke="#111" stroke-width="2.6" stroke-linecap="round" stroke-linejoin="round"/><ellipse cx="725.5262794416288" cy="83.5" rx="6.800000000000001" ry="4" fill="none" stroke="#111" stroke-width="2.6" stroke-linecap="round" stroke-linejoin="round"/><ellipse cx="716" cy="89" rx="6.800000000000001" ry="4" fill="none" stroke="#111" stroke-width="2.6" stroke-linecap="round" stroke-linejoin="round"/><ellipse cx="706.4737205583712" cy="83.5" rx="6.800000000000001" ry="4" fill="none" stroke="#111" stroke-width="2.6" stroke-linecap="round" stroke-linejoin="round"/><ellipse cx="706.4737205583712" cy="72.5" rx="6.800000000000001" ry="4" fill="none" stroke="#111" stroke-width="2.6" stroke-linecap="round" stroke-linejoin="round"/><circle cx="716" cy="78" r="6" fill="none" stroke="#111" stroke-width="2.6" stroke-linecap="round" stroke-linejoin="round"/><ellipse cx="78" cy="1034" rx="6.800000000000001" ry="4" fill="none" stroke="#111" stroke-width="2.6" stroke-linecap="round" stroke-linejoin="round"/><ellipse cx="87.52627944162883" cy="1039.5" rx="6.800000000000001" ry="4" fill="none" stroke="#111" stroke-width="2.6" stroke-linecap="round" stroke-linejoin="round"/><ellipse cx="87.52627944162883" cy="1050.5" rx="6.800000000000001" ry="4" fill="none" stroke="#111" stroke-width="2.6" stroke-linecap="round" stroke-linejoin="round"/><ellipse cx="78" cy="1056" rx="6.800000000000001" ry="4" fill="none" stroke="#111" stroke-width="2.6" stroke-linecap="round" stroke-linejoin="round"/><ellipse cx="68.47372055837117" cy="1050.5" rx="6.800000000000001" ry="4" fill="none" stroke="#111" stroke-width="2.6" stroke-linecap="round" stroke-linejoin="round"/><ellipse cx="68.47372055837117" cy="1039.5" rx="6.800000000000001" ry="4" fill="none" stroke="#111" stroke-width="2.6" stroke-linecap="round" stroke-linejoin="round"/><circle cx="78" cy="1045" r="6" fill="none" stroke="#111" stroke-width="2.6" stroke-linecap="round" stroke-linejoin="round"/><ellipse cx="716" cy="1034" rx="6.800000000000001" ry="4" fill="none" stroke="#111" stroke-width="2.6" stroke-linecap="round" stroke-linejoin="round"/><ellipse cx="725.5262794416288" cy="1039.5" rx="6.800000000000001" ry="4" fill="none" stroke="#111" stroke-width="2.6" stroke-linecap="round" stroke-linejoin="round"/><ellipse cx="725.5262794416288" cy="1050.5" rx="6.800000000000001" ry="4" fill="none" stroke="#111" stroke-width="2.6" stroke-linecap="round" stroke-linejoin="round"/><ellipse cx="716" cy="1056" rx="6.800000000000001" ry="4" fill="none" stroke="#111" stroke-width="2.6" stroke-linecap="round" stroke-linejoin="round"/><ellipse cx="706.4737205583712" cy="1050.5" rx="6.800000000000001" ry="4" fill="none" stroke="#111" stroke-width="2.6" stroke-linecap="round" stroke-linejoin="round"/><ellipse cx="706.4737205583712" cy="1039.5" rx="6.800000000000001" ry="4" fill="none" stroke="#111" stroke-width="2.6" stroke-linecap="round" stroke-linejoin="round"/><circle cx="716" cy="1045" r="6" fill="none" stroke="#111" stroke-width="2.6" stroke-linecap="round" stroke-linejoin="round"/><rect x="177" y="806.5" width="40" height="95" rx="6" fill="none" stroke="#111" stroke-width="2.6" stroke-linecap="round" stroke-linejoin="round"/><circle cx="197" cy="771.5" r="75" fill="none" stroke="#111" stroke-width="2.6" stroke-linecap="round" stroke-linejoin="round"/><circle cx="147" cy="806.5" r="55" fill="none" stroke="#111" stroke-width="2.6" stroke-linecap="round" stroke-linejoin="round"/><circle cx="247" cy="806.5" r="55" fill="none" stroke="#111" stroke-width="2.6" stroke-linecap="round" stroke-linejoin="round"/><circle cx="197" cy="731.5" r="45" fill="none" stroke="#111" stroke-width="2.6" stroke-linecap="round" stroke-linejoin="round"/><circle cx="237" cy="771.5" r="5" fill="none" stroke="#111" stroke-width="1.9" stroke-linecap="round" stroke-linejoin="round"/><circle cx="209.3606797749979" cy="809.5422606518061" r="5" fill="none" stroke="#111" stroke-width="1.9" stroke-linecap="round" stroke-linejoin="round"/><circle cx="164.6393202250021" cy="795.011410091699" r="5" fill="none" stroke="#111" stroke-width="1.9" stroke-linecap="round" stroke-linejoin="round"/><circle cx="164.6393202250021" cy="747.988589908301" r="5" fill="none" stroke="#111" stroke-width="1.9" stroke-linecap="round" stroke-linejoin="round"/><circle cx="209.3606797749979" cy="733.4577393481939" r="5" fill="none" stroke="#111" stroke-width="1.9" stroke-linecap="round" stroke-linejoin="round"/><rect x="373.8" y="801.3" width="46.4" height="110.2" rx="6" fill="none" stroke="#111" stroke-width="2.6" stroke-linecap="round" stroke-linejoin="round"/><circle cx="397" cy="760.7" r="87" fill="none" stroke="#111" stroke-width="2.6" stroke-linecap="round" stroke-linejoin="round"/><circle cx="339" cy="801.3" r="63.8" fill="none" stroke="#111" stroke-width="2.6" stroke-linecap="round" stroke-linejoin="round"/><circle cx="455" cy="801.3" r="63.8" fill="none" stroke="#111" stroke-width="2.6" stroke-linecap="round" stroke-linejoin="round"/><circle cx="397" cy="714.3" r="52.199999999999996" fill="none" stroke="#111" stroke-width="2.6" stroke-linecap="round" stroke-linejoin="round"/><circle cx="443.4" cy="760.7" r="5" fill="none" stroke="#111" stroke-width="1.9" stroke-linecap="round" stroke-linejoin="round"/><circle cx="411.33838853899755" cy="804.8290223560952" r="5" fill="none" stroke="#111" stroke-width="1.9" stroke-linecap="round" stroke-linejoin="round"/><circle cx="359.46161146100246" cy="787.9732357063708" r="5" fill="none" stroke="#111" stroke-width="1.9" stroke-linecap="round" stroke-linejoin="round"/><circle cx="359.46161146100246" cy="733.4267642936293" r="5" fill="none" stroke="#111" stroke-width="1.9" stroke-linecap="round" stroke-linejoin="round"/><circle cx="411.33838853899755" cy="716.5709776439049" r="5" fill="none" stroke="#111" stroke-width="1.9" stroke-linecap="round" stroke-linejoin="round"/><rect x="583.6" y="814.1" width="36.800000000000004" height="87.4" rx="6" fill="none" stroke="#111" stroke-width="2.6" stroke-linecap="round" stroke-linejoin="round"/><circle cx="602" cy="781.9" r="69" fill="none" stroke="#111" stroke-width="2.6" stroke-linecap="round" stroke-linejoin="round"/><circle cx="556" cy="814.1" r="50.6" fill="none" stroke="#111" stroke-width="2.6" stroke-linecap="round" stroke-linejoin="round"/><circle cx="648" cy="814.1" r="50.6" fill="none" stroke="#111" stroke-width="2.6" stroke-linecap="round" stroke-linejoin="round"/><circle cx="602" cy="745.1" r="41.4" fill="none" stroke="#111" stroke-width="2.6" stroke-linecap="round" stroke-linejoin="round"/><circle cx="638.8" cy="781.9" r="5" fill="none" stroke="#111" stroke-width="1.9" stroke-linecap="round" stroke-linejoin="round"/><circle cx="613.3718253929981" cy="816.8988797996616" r="5" fill="none" stroke="#111" stroke-width="1.9" stroke-linecap="round" stroke-linejoin="round"/><circle cx="572.228174607002" cy="803.530497284363" r="5" fill="none" stroke="#111" stroke-width="1.9" stroke-linecap="round" stroke-linejoin="round"/><circle cx="572.228174607002" cy="760.2695027156369" r="5" fill="none" stroke="#111" stroke-width="1.9" stroke-linecap="round" stroke-linejoin="round"/><circle cx="613.3718253929981" cy="746.9011202003384" r="5" fill="none" stroke="#111" stroke-width="1.9" stroke-linecap="round" stroke-linejoin="round"/><ellipse cx="297" cy="486.5" rx="24.7" ry="17.1" fill="none" stroke="#111" stroke-width="2.6" stroke-linecap="round" stroke-linejoin="round"/><circle cx="323.6" cy="479.66" r="10.64" fill="none" stroke="#111" stroke-width="2.6" stroke-linecap="round" stroke-linejoin="round"/><circle cx="328.15999999999997" cy="477" r="2.28" fill="none" stroke="#111" stroke-width="2.6" stroke-linecap="round" stroke-linejoin="round"/><path d="M 335 481.94 L 348.3 486.5 L 335 488.78 Z" fill="none" stroke="#111" stroke-width="2.6" stroke-linecap="round" stroke-linejoin="round"/><path d="M 293.2 486.5 Q 291.3 458 312.2 478.9" fill="none" stroke="#111" stroke-width="2.6" stroke-linecap="round" stroke-linejoin="round"/><path d="M 293.2 488.4 Q 285.6 505.5 302.7 497.9" fill="none" stroke="#111" stroke-width="2.6" stroke-linecap="round" stroke-linejoin="round"/><line x1="287.5" y1="482.7" x2="291.3" y2="494.86" fill="none" stroke="#111" stroke-width="1.9" stroke-linecap="round" stroke-linejoin="round"/><line x1="292.06" y1="482.7" x2="295.86" y2="494.86" fill="none" stroke="#111" stroke-width="1.9" stroke-linecap="round" stroke-linejoin="round"/><line x1="296.62" y1="482.7" x2="300.42" y2="494.86" fill="none" stroke="#111" stroke-width="1.9" stroke-linecap="round" stroke-linejoin="round"/><line x1="301.18" y1="482.7" x2="304.98" y2="494.86" fill="none" stroke="#111" stroke-width="1.9" stroke-linecap="round" stroke-linejoin="round"/><ellipse cx="532" cy="526.5" rx="20.8" ry="14.4" fill="none" stroke="#111" stroke-width="2.6" stroke-linecap="round" stroke-linejoin="round"/><circle cx="554.4" cy="520.74" r="8.96" fill="none" stroke="#111" stroke-width="2.6" stroke-linecap="round" stroke-linejoin="round"/><circle cx="558.24" cy="518.5" r="1.92" fill="none" stroke="#111" stroke-width="2.6" stroke-linecap="round" stroke-linejoin="round"/><path d="M 564 522.66 L 575.2 526.5 L 564 528.42 Z" fill="none" stroke="#111" stroke-width="2.6" stroke-linecap="round" stroke-linejoin="round"/><path d="M 528.8 526.5 Q 527.2 502.5 544.8 520.1" fill="none" stroke="#111" stroke-width="2.6" stroke-linecap="round" stroke-linejoin="round"/><path d="M 528.8 528.1 Q 522.4 542.5 536.8 536.1" fill="none" stroke="#111" stroke-width="2.6" stroke-linecap="round" stroke-linejoin="round"/><line x1="524" y1="523.3" x2="527.2" y2="533.54" fill="none" stroke="#111" stroke-width="1.9" stroke-linecap="round" stroke-linejoin="round"/><line x1="527.84" y1="523.3" x2="531.0400000000001" y2="533.54" fill="none" stroke="#111" stroke-width="1.9" stroke-linecap="round" stroke-linejoin="round"/><line x1="531.68" y1="523.3" x2="534.88" y2="533.54" fill="none" stroke="#111" stroke-width="1.9" stroke-linecap="round" stroke-linejoin="round"/><line x1="535.52" y1="523.3" x2="538.72" y2="533.54" fill="none" stroke="#111" stroke-width="1.9" stroke-linecap="round" stroke-linejoin="round"/><ellipse cx="432" cy="736.5" rx="65" ry="38" fill="none" stroke="#111" stroke-width="2.6" stroke-linecap="round" stroke-linejoin="round"/><ellipse cx="120" cy="850.5" rx="6.800000000000001" ry="4" fill="none" stroke="#111" stroke-width="2.6" stroke-linecap="round" stroke-linejoin="round"/><ellipse cx="130.4616216792467" cy="858.1008130618756" rx="6.800000000000001" ry="4" fill="none" stroke="#111" stroke-width="2.6" stroke-linecap="round" stroke-linejoin="round"/><ellipse cx="126.4656377752172" cy="870.3991869381244" rx="6.800000000000001" ry="4" fill="none" stroke="#111" stroke-width="2.6" stroke-linecap="round" stroke-linejoin="round"/><ellipse cx="113.5343622247828" cy="870.3991869381244" rx="6.800000000000001" ry="4" fill="none" stroke="#111" stroke-width="2.6" stroke-linecap="round" stroke-linejoin="round"/><ellipse cx="109.53837832075331" cy="858.1008130618756" rx="6.800000000000001" ry="4" fill="none" stroke="#111" stroke-width="2.6" stroke-linecap="round" stroke-linejoin="round"/><circle cx="120" cy="861.5" r="6" fill="none" stroke="#111" stroke-width="2.6" stroke-linecap="round" stroke-linejoin="round"/><ellipse cx="250" cy="850.5" rx="6.800000000000001" ry="4" fill="none" stroke="#111" stroke-width="2.6" stroke-linecap="round" stroke-linejoin="round"/><ellipse cx="259.52627944162884" cy="856" rx="6.800000000000001" ry="4" fill="none" stroke="#111" stroke-width="2.6" stroke-linecap="round" stroke-linejoin="round"/><ellipse cx="259.52627944162884" cy="867" rx="6.800000000000001" ry="4" fill="none" stroke="#111" stroke-width="2.6" stroke-linecap="round" stroke-linejoin="round"/><ellipse cx="250" cy="872.5" rx="6.800000000000001" ry="4" fill="none" stroke="#111" stroke-width="2.6" stroke-linecap="round" stroke-linejoin="round"/><ellipse cx="240.47372055837118" cy="867" rx="6.800000000000001" ry="4" fill="none" stroke="#111" stroke-width="2.6" stroke-linecap="round" stroke-linejoin="round"/><ellipse cx="240.47372055837118" cy="856" rx="6.800000000000001" ry="4" fill="none" stroke="#111" stroke-width="2.6" stroke-linecap="round" stroke-linejoin="round"/><circle cx="250" cy="861.5" r="6" fill="none" stroke="#111" stroke-width="2.6" stroke-linecap="round" stroke-linejoin="round"/><ellipse cx="380" cy="850.5" rx="6.800000000000001" ry="4" fill="none" stroke="#111" stroke-width="2.6" stroke-linecap="round" stroke-linejoin="round"/><ellipse cx="388.60014630714835" cy="854.6416121795539" rx="6.800000000000001" ry="4" fill="none" stroke="#111" stroke-width="2.6" stroke-linecap="round" stroke-linejoin="round"/><ellipse cx="390.7242070340001" cy="863.9477302735195" rx="6.800000000000001" ry="4" fill="none" stroke="#111" stroke-width="2.6" stroke-linecap="round" stroke-linejoin="round"/><ellipse cx="384.7727211302931" cy="871.4106575469266" rx="6.800000000000001" ry="4" fill="none" stroke="#111" stroke-width="2.6" stroke-linecap="round" stroke-linejoin="round"/><ellipse cx="375.2272788697069" cy="871.4106575469266" rx="6.800000000000001" ry="4" fill="none" stroke="#111" stroke-width="2.6" stroke-linecap="round" stroke-linejoin="round"/><ellipse cx="369.2757929659999" cy="863.9477302735195" rx="6.800000000000001" ry="4" fill="none" stroke="#111" stroke-width="2.6" stroke-linecap="round" stroke-linejoin="round"/><ellipse cx="371.39985369285165" cy="854.6416121795539" rx="6.800000000000001" ry="4" fill="none" stroke="#111" stroke-width="2.6" stroke-linecap="round" stroke-linejoin="round"/><circle cx="380" cy="861.5" r="6" fill="none" stroke="#111" stroke-width="2.6" stroke-linecap="round" stroke-linejoin="round"/><ellipse cx="510" cy="850.5" rx="6.800000000000001" ry="4" fill="none" stroke="#111" stroke-width="2.6" stroke-linecap="round" stroke-linejoin="round"/><ellipse cx="520.4616216792467" cy="858.1008130618756" rx="6.800000000000001" ry="4" fill="none" stroke="#111" stroke-width="2.6" stroke-linecap="round" stroke-linejoin="round"/><ellipse cx="516.4656377752173" cy="870.3991869381244" rx="6.800000000000001" ry="4" fill="none" stroke="#111" stroke-width="2.6" stroke-linecap="round" stroke-linejoin="round"/><ellipse cx="503.5343622247828" cy="870.3991869381244" rx="6.800000000000001" ry="4" fill="none" stroke="#111" stroke-width="2.6" stroke-linecap="round" stroke-linejoin="round"/><ellipse cx="499.5383783207533" cy="858.1008130618756" rx="6.800000000000001" ry="4" fill="none" stroke="#111" stroke-width="2.6" stroke-linecap="round" stroke-linejoin="round"/><circle cx="510" cy="861.5" r="6" fill="none" stroke="#111" stroke-width="2.6" stroke-linecap="round" stroke-linejoin="round"/><ellipse cx="640" cy="850.5" rx="6.800000000000001" ry="4" fill="none" stroke="#111" stroke-width="2.6" stroke-linecap="round" stroke-linejoin="round"/><ellipse cx="649.5262794416288" cy="856" rx="6.800000000000001" ry="4" fill="none" stroke="#111" stroke-width="2.6" stroke-linecap="round" stroke-linejoin="round"/><ellipse cx="649.5262794416288" cy="867" rx="6.800000000000001" ry="4" fill="none" stroke="#111" stroke-width="2.6" stroke-linecap="round" stroke-linejoin="round"/><ellipse cx="640" cy="872.5" rx="6.800000000000001" ry="4" fill="none" stroke="#111" stroke-width="2.6" stroke-linecap="round" stroke-linejoin="round"/><ellipse cx="630.4737205583712" cy="867" rx="6.800000000000001" ry="4" fill="none" stroke="#111" stroke-width="2.6" stroke-linecap="round" stroke-linejoin="round"/><ellipse cx="630.4737205583712" cy="856" rx="6.800000000000001" ry="4" fill="none" stroke="#111" stroke-width="2.6" stroke-linecap="round" stroke-linejoin="round"/><circle cx="640" cy="861.5" r="6" fill="none" stroke="#111" stroke-width="2.6" stroke-linecap="round" stroke-linejoin="round"/><ellipse cx="180" cy="160" rx="35" ry="18.2" fill="none" stroke="#111" stroke-width="2.6" stroke-linecap="round" stroke-linejoin="round"/><circle cx="160.4" cy="162.24" r="14" fill="none" stroke="#111" stroke-width="2.6" stroke-linecap="round" stroke-linejoin="round"/><circle cx="199.6" cy="162.24" r="13.44" fill="none" stroke="#111" stroke-width="2.6" stroke-linecap="round" stroke-linejoin="round"/><circle cx="180" cy="150.2" r="15.400000000000002" fill="none" stroke="#111" stroke-width="2.6" stroke-linecap="round" stroke-linejoin="round"/><ellipse cx="550" cy="180" rx="40" ry="20.8" fill="none" stroke="#111" stroke-width="2.6" stroke-linecap="round" stroke-linejoin="round"/><circle cx="527.6" cy="182.56" r="16" fill="none" stroke="#111" stroke-width="2.6" stroke-linecap="round" stroke-linejoin="round"/><circle cx="572.4" cy="182.56" r="15.36" fill="none" stroke="#111" stroke-width="2.6" stroke-linecap="round" stroke-linejoin="round"/><circle cx="550" cy="168.8" r="17.6" fill="none" stroke="#111" stroke-width="2.6" stroke-linecap="round" stroke-linejoin="round"/><path d="M 60 921.5 L 73 912.5 L 86 921.5 L 99 912.5 L 112 921.5 L 125 912.5 L 138 921.5 L 151 912.5 L 164 921.5 L 177 912.5 L 190 921.5 L 203 912.5 L 216 921.5 L 229 912.5 L 242 921.5 L 255 912.5 L 268 921.5 L 281 912.5 L 294 921.5 L 307 912.5 L 320 921.5 L 333 912.5 L 346 921.5 L 359 912.5 L 372 921.5 L 385 912.5 L 398 921.5 L 411 912.5 L 424 921.5 L 437 912.5 L 450 921.5 L 463 912.5 L 476 921.5 L 489 912.5 L 502 921.5 L 515 912.5 L 528 921.5 L 541 912.5 L 554 921.5 L 567 912.5 L 580 921.5 L 593 912.5 L 606 921.5 L 619 912.5 L 632 921.5 L 645 912.5 L 658 921.5 L 671 912.5 L 684 921.5 L 697 912.5 L 710 921.5 L 723 912.5 L 736 921.5" fill="none" stroke="#111" stroke-width="1.9" stroke-linecap="round" stroke-linejoin="round"/>
<g id="sts-complete-footer" font-family="Arial, Helvetica, sans-serif" fill="#555" text-anchor="middle">
  <text x="397" y="1008" font-size="14">Completar e colorir</text>
  <text x="397" y="1028" font-size="13">Complete and color</text>
  <text x="397" y="1048" font-size="13">Completar y colorear</text>
  <text x="397" y="1068" font-size="13">完成并涂色</text>
</g>
</svg>
