<?xml version="1.0" encoding="UTF-8"?>
<svg xmlns="http://www.w3.org/2000/svg" viewBox="0 0 794 1123" width="794" height="1123">
<rect width="794" height="1123" fill="#fff"/>
<rect x="40" y="40" width="714" height="1043" rx="24" fill="none" stroke="#111" stroke-width="2.5" stroke-linecap="round" stroke-linejoin="round"/><rect x="55" y="55" width="684" height="1013" rx="18" fill="none" stroke="#111" stroke-width="2.5" stroke-linecap="round" stroke-linejoin="round"/><ellipse cx="397" cy="641.5" rx="220" ry="80" fill="none" stroke="#111" stroke-width="3" stroke-linecap="round" stroke-linejoin="round"/><rect x="187.4" y="545.5" width="19.2" height="56" rx="4" fill="none" stroke="#111" stroke-width="3" stroke-linecap="round" stroke-linejoin="round"/><circle cx="197" cy="510.3" r="44.800000000000004" fill="none" stroke="#111" stroke-width="3" stroke-linecap="round" stroke-linejoin="round"/><circle cx="168.2" cy="529.5" r="32" fill="none" stroke="#111" stroke-width="3" stroke-linecap="round" stroke-linejoin="round"/><circle cx="225.8" cy="529.5" r="32" fill="none" stroke="#111" stroke-width="3" stroke-linecap="round" stroke-linejoin="round"/><rect x="598.6" y="572.5" width="16.8" height="49" rx="4" fill="none" stroke="#111" stroke-width="3" stroke-linecap="round" stroke-linejoin="round"/><circle cx="607" cy="541.7" r="39.2" fill="none" stroke="#111" stroke-width="3" stroke-linecap="round" stroke-linejoin="round"/><circle cx="581.8" cy="558.5" r="28" fill="none" stroke="#111" stroke-width="3" stroke-linecap="round" stroke-linejoin="round"/><circle cx="632.2" cy="558.5" r="28" fill="none" stroke="#111" stroke-width="3" stroke-linecap="round" stroke-linejoin="round"/><ellipse cx="357" cy="621.5" rx="30" ry="20" fill="none" stroke="#111" stroke-width="3" stroke-linecap="round" stroke-linejoin="round"/><circle cx="385" cy="603.5" r="14" fill="none" stroke="#111" stroke-width="3" stroke-linecap="round" stroke-linejoin="round"/><path d="M 397 605.5 L 419 607.5 L 397 613.5 Z" fill="none" stroke="#111" stroke-width="3" stroke-linecap="round" stroke-linejoin="round"/><circle cx="389" cy="601.5" r="2.8000000000000003" fill="none" stroke="#111" stroke-width="3" stroke-linecap="round" stroke-linejoin="round"/><circle cx="600" cy="180" r="40" fill="none" stroke="#111" stroke-width="3" stroke-linecap="round" stroke-linejoin="round"/><line x1="652" y1="180" x2="676" y2="180" fill="none" stroke="#111" stroke-width="3" stroke-linecap="round" stroke-linejoin="round"/><line x1="636.7695526217004" y1="216.76955262170048" x2="653.7401153701776" y2="233.7401153701776" fill="none" stroke="#111" stroke-width="3" stroke-linecap="round" stroke-linejoin="round"/><line x1="600" y1="232" x2="600" y2="256" fill="none" stroke="#111" stroke-width="3" stroke-linecap="round" stroke-linejoin="round"/><line x1="563.2304473782996" y1="216.76955262170048" x2="546.2598846298224" y2="233.74011537017762" fill="none" stroke="#111" stroke-width="3" stroke-linecap="round" stroke-linejoin="round"/><line x1="548" y1="180" x2="524" y2="180" fill="none" stroke="#111" stroke-width="3" stroke-linecap="round" stroke-linejoin="round"/><line x1="563.2304473782996" y1="143.23044737829952" x2="546.2598846298224" y2="126.2598846298224" fill="none" stroke="#111" stroke-width="3" stroke-linecap="round" stroke-linejoin="round"/><line x1="600" y1="128" x2="600" y2="104" fill="none" stroke="#111" stroke-width="3" stroke-linecap="round" stroke-linejoin="round"/><line x1="636.7695526217004" y1="143.23044737829952" x2="653.7401153701776" y2="126.25988462982238" fill="none" stroke="#111" stroke-width="3" stroke-linecap="round" stroke-linejoin="round"/>
<g id="sts-complete-footer" font-family="Arial, Helvetica, sans-serif" fill="#555" text-anchor="middle">
  <text x="397" y="1008" font-size="14">Completar e colorir</text>
  <text x="397" y="1028" font-size="13">Complete and color</text>
  <text x="397" y="1048" font-size="13">Completar y colorear</text>
  <text x="397" y="1068" font-size="13">完成并涂色</text>
</g>
</svg>
